PathFileType	4	(X/Y/Z)	C:\Users\dbl\Desktop\20210112\20210112\bx_n_5_501.trc
DataRate	CameraRate	NumFrames	NumMarkers	Units	OrigDataRate	OrigDataStartFrame	OrigNumFrames
50.00	50.00	       4	43	mm	50.00	65	       517
Frame#	Time	Top.Head			R.Acromium			L.Acromium			Sternum			R.ASIS			L.ASIS			V.Sacral			R.Thigh.Upper			R.Thigh.Front			R.Thigh.Rear			R.Knee.Lat			R.Knee.Med			R.Shank.Upper			R.Shank.Front			R.Shank.Rear			R.Ankle.Lat			R.Midfoot.Lat			R.Toe.Lat			R.Toe.Tip			R.Toe.Med			R.Ankle.Med			R.Midfoot.Sup			R.Heel			L.Thigh.Upper			L.Thigh.Front			L.Thigh.Rear			L.Knee.Lat			L.Knee.Med			L.Shank.Upper			L.Shank.Front			L.Shank.Rear			L.Ankle.Lat			L.Midfoot.Lat			L.Toe.Lat			L.Toe.Tip			L.Toe.Med			L.Ankle.Med			L.Midfoot.Sup			L.Heel			origin1 front left			origin2 front right			origin 3 back right			origin 4 back leftt			
		X1	Y1	Z1	X2	Y2	Z2	X3	Y3	Z3	X4	Y4	Z4	X5	Y5	Z5	X6	Y6	Z6	X7	Y7	Z7	X8	Y8	Z8	X9	Y9	Z9	X10	Y10	Z10	X11	Y11	Z11	X12	Y12	Z12	X13	Y13	Z13	X14	Y14	Z14	X15	Y15	Z15	X16	Y16	Z16	X17	Y17	Z17	X18	Y18	Z18	X19	Y19	Z19	X20	Y20	Z20	X21	Y21	Z21	X22	Y22	Z22	X23	Y23	Z23	X24	Y24	Z24	X25	Y25	Z25	X26	Y26	Z26	X27	Y27	Z27	X28	Y28	Z28	X29	Y29	Z29	X30	Y30	Z30	X31	Y31	Z31	X32	Y32	Z32	X33	Y33	Z33	X34	Y34	Z34	X35	Y35	Z35	X36	Y36	Z36	X37	Y37	Z37	X38	Y38	Z38	X39	Y39	Z39	X40	Y40	Z40	X41	Y41	Z41	X42	Y42	Z42	X43	Y43	Z43	

65	1.280	-666.79022	130.91461	1848.56360	-676.32788	-65.03806	1537.34583	-717.59479	294.87027	1525.02625	-590.93726	113.52746	1355.55859	-578.73163	1.28215	1055.22681	-589.83154	249.92618	1064.99695	-782.81732	98.68801	1052.85315	-642.58844	-66.85546	870.77185	-569.83514	1.09952	802.38275	-665.73480	-58.30559	756.48181	-693.63770	-31.18837	615.24274	-684.22858	78.59944	572.19598	-703.90741	-28.57225	568.62170	-657.34851	20.43307	517.91681	-749.81342	-42.45285	489.99268	-757.38617	-17.61924	208.23576	-648.50513	-65.56417	163.57083	-606.15692	-71.31738	159.30966	-547.31116	-26.27766	164.11412	-599.05945	28.45708	166.45497	-718.21027	72.81449	215.31860	-674.24390	55.04307	157.02414	-793.06848	40.83840	175.84789	-671.92072	289.92255	871.50897	-575.94672	228.14072	791.99445	-682.11316	273.70190	742.66156	-714.32056	253.89995	642.52673	-679.83850	146.86024	576.45056	-718.33966	249.86601	576.27692	-666.02954	208.17503	533.54028	-760.23920	259.40372	503.01334	-767.54211	227.13777	205.74301	-660.39600	297.46088	158.23802	-623.90674	305.95328	159.27409	-555.70709	255.97177	164.38675	-591.76569	217.49063	173.91859	-712.52533	153.33875	216.22870	-675.31250	171.09404	158.00548	-795.92291	178.36043	184.50526	-528.01556	304.59268	146.74940	-517.12738	-72.88790	143.59332	-875.99731	-78.70207	141.54651	-882.45892	296.24771	144.81337	
66	1.300	-666.30603	131.16882	1848.54419	-676.11163	-64.95371	1537.36719	-717.50317	294.87061	1525.02136	-590.76501	113.63347	1355.61499	-578.73163	1.28102	1055.22803	-589.82330	249.98712	1064.98621	-782.80603	98.73235	1052.91248	-642.53076	-66.77177	870.75854	-569.78619	1.07919	802.39246	-665.71515	-58.25694	756.45490	-693.59412	-31.20724	615.16510	-684.15869	78.65221	572.23169	-703.86139	-28.56469	568.61725	-657.26245	20.44071	517.94507	-749.76154	-42.42174	489.97079	-757.40210	-17.63806	208.24861	-648.49640	-65.55405	163.62729	-606.14056	-71.30545	159.31175	-547.30548	-26.27030	164.13121	-599.05353	28.45720	166.47064	-718.21375	72.82237	215.31010	-674.28516	55.04675	156.95206	-793.04211	40.83996	175.82875	-671.91235	289.92136	871.49982	-575.91614	228.16516	792.00342	-682.12347	273.71484	742.66364	-714.30371	253.91454	642.53809	-679.81421	146.87651	576.44696	-718.21936	249.87990	576.23792	-666.02069	208.19701	533.52380	-760.15942	259.39536	503.01910	-767.54559	227.10936	205.73618	-660.39679	297.50076	158.26111	-623.91815	305.94241	159.29767	-555.74030	255.97012	164.32262	-591.82434	217.49492	173.89595	-712.39038	153.34991	216.23660	-675.31287	171.09479	158.00471	-795.87585	178.37321	184.48447	-528.03436	304.65689	146.79297	-517.10944	-72.88034	143.59088	-875.98541	-78.72616	141.51779	-882.45740	296.24182	144.82320	
67	1.320	-665.78705	131.38821	1848.52222	-675.85828	-64.85976	1537.37781	-717.35175	294.85535	1525.04236	-590.55505	113.74066	1355.64807	-578.73151	1.27979	1055.22437	-589.81165	250.05124	1064.97815	-782.80383	98.81232	1052.96082	-642.49054	-66.71724	870.77722	-569.74542	1.06212	802.39392	-665.69513	-58.20623	756.47064	-693.54724	-31.20411	615.12787	-684.08301	78.71767	572.25470	-703.82220	-28.56645	568.64093	-657.15961	20.43445	517.99744	-749.71912	-42.39480	489.95978	-757.42804	-17.65946	208.25148	-648.50238	-65.55315	163.69202	-606.12567	-71.29876	159.32060	-547.30420	-26.26242	164.13791	-599.02106	28.45209	166.47466	-718.20697	72.82170	215.31419	-674.31384	55.04356	156.87976	-793.01184	40.83577	175.82043	-671.90192	289.91785	871.48566	-575.87653	228.17218	791.99622	-682.11823	273.75278	742.66644	-714.25549	253.94290	642.55920	-679.78021	146.90170	576.44910	-718.07556	249.87421	576.17523	-666.00745	208.20863	533.52148	-760.06018	259.36102	503.02832	-767.53400	227.07140	205.75032	-660.40198	297.52179	158.28403	-623.90729	305.91345	159.31641	-555.75330	255.94038	164.25957	-591.85468	217.49933	173.86555	-712.24438	153.37582	216.23038	-675.31342	171.09595	158.00356	-795.81610	178.38187	184.45953	-528.05341	304.69781	146.82341	-517.12091	-72.86459	143.59343	-875.97485	-78.75311	141.48741	-882.46161	296.21689	144.81818	
68	1.340	-665.20844	131.50964	1848.51099	-675.55884	-64.77154	1537.37915	-717.10834	294.85651	1525.07886	-590.30182	113.87962	1355.66858	-578.72729	1.28424	1055.22876	-589.79034	250.11125	1064.97437	-782.80066	98.90447	1052.98462	-642.46497	-66.68916	870.83130	-569.73120	1.05470	802.39502	-665.66290	-58.16033	756.53741	-693.52118	-31.19005	615.16675	-684.00452	78.77811	572.24792	-703.78540	-28.57364	568.69360	-657.06635	20.41819	518.04419	-749.67456	-42.37874	489.96832	-757.45313	-17.67155	208.25157	-648.50586	-65.56445	163.73907	-606.11078	-71.28547	159.33141	-547.30927	-26.25718	164.13481	-598.98584	28.45903	166.44977	-718.20105	72.81741	215.32410	-674.30750	55.04240	156.85115	-792.99133	40.81937	175.84561	-671.89600	289.91306	871.47797	-575.82898	228.15985	791.97852	-682.08942	273.80670	742.67041	-714.19745	253.98506	642.58575	-679.74835	146.92375	576.45239	-717.95282	249.86282	576.12982	-665.98029	208.21300	533.51801	-759.95117	259.32193	503.03494	-767.51398	227.04086	205.77940	-660.40771	297.52570	158.31097	-623.89551	305.89670	159.32007	-555.73846	255.89719	164.24370	-591.85071	217.49115	173.83217	-712.16449	153.39264	216.21793	-675.31329	171.09575	158.00375	-795.77930	178.37700	184.44217	-528.06219	304.68344	146.83015	-517.16211	-72.83882	143.61496	-875.97284	-78.76814	141.47069	-882.48065	296.17435	144.78133	
